# xmcd CD database file
#
# Track frame offsets:
#	150
#	9200
#	30740
#	57670
#	80192
#	106400
#	133775
#	161520
#	186572
#	210005
#	239390
#	266522
#	297825
#	315042
#
# Disc length: 4292 seconds
#
# Revision: 10
# Processed by: cddbd v1.5.2PL0 Copyright (c) Steve Scherf et al.
# Submitted via: CDex 1.77
#
DISCID=bc10c20e
DTITLE=DJ Tiesto - Dj Tiesto - In Search of Sunrise 7 (Asia) Disc2
DYEAR=2008
DGENRE=Trance
TTITLE0=Blossom (Lounge Mix)
TTITLE1=Crossroads
TTITLE2=Kenta
TTITLE3=Rush
TTITLE4=Driving To Heaven (Mat Zo Remix)
TTITLE5=Just A Thought
TTITLE6=Melkweg
TTITLE7=Whenever I May Find Her (Joni Remix)
TTITLE8=Casa Grande
TTITLE9=Wounded Soul
TTITLE10=Something For Your Mind (Guiseppe Ottaviani Remix)
TTITLE11=The Curtain
TTITLE12=Tanz Der Seele (YOMC Remix)
TTITLE13=Beyond The Stars
EXTD=YEAR: 2008
EXTT0=
EXTT1=
EXTT2=
EXTT3=
EXTT4=
EXTT5=
EXTT6=
EXTT7=
EXTT8=
EXTT9=
EXTT10=
EXTT11=
EXTT12=
EXTT13=
PLAYORDER=
